<?xml version="1.0" standalone="no"?>
<!DOCTYPE svg PUBLIC "-//W3C//DTD SVG 20010904//EN"
 "http://www.w3.org/TR/2001/REC-SVG-20010904/DTD/svg10.dtd">
<svg version="1.0" xmlns="http://www.w3.org/2000/svg"
style="width:100%;height:100%;" viewBox="0 0 836.000000 836.000000"
 preserveAspectRatio="xMidYMid meet">

<g transform="translate(0.000000,836.000000) scale(0.100000,-0.100000)"
fill="#8E5F4B" stroke="none">
<path d="M4680 4415 c-68 -31 -110 -94 -110 -165 0 -86 39 -135 137 -170 95
-34 126 -75 87 -114 -22 -23 -101 -21 -142 4 -43 26 -47 26 -70 -14 -41 -69
-40 -73 30 -106 52 -25 75 -30 133 -29 134 1 206 56 221 167 13 100 -31 159
-152 206 -75 28 -96 49 -83 83 11 30 58 38 105 18 21 -8 43 -14 50 -11 12 4
54 79 54 96 0 36 -198 63 -260 35z"/>
<path d="M350 4129 l0 -289 45 -2 c25 -1 57 -2 73 -2 l27 -1 5 102 5 102 70
-99 c67 -94 71 -98 114 -104 68 -9 131 -7 131 5 0 6 -36 58 -80 117 -82 110
-89 122 -68 122 29 0 78 47 93 89 20 59 19 93 -5 144 -39 82 -112 108 -296
106 l-114 -1 0 -289z m229 160 c34 -12 47 -42 37 -84 -7 -28 -40 -45 -87 -45
l-29 0 0 70 c0 67 1 70 24 70 12 0 37 -5 55 -11z"/>
<path d="M1392 4196 c3 -213 4 -223 28 -267 16 -30 41 -57 70 -75 42 -27 52
-29 156 -29 105 0 113 1 153 28 67 45 93 111 99 257 2 64 1 160 -3 213 l-7 96
-66 -2 -67 -2 -5 -200 c-3 -110 -10 -208 -14 -218 -11 -24 -58 -47 -95 -47
-20 0 -42 11 -63 29 l-33 29 -5 194 c-3 106 -9 199 -13 205 -5 8 -31 12 -73
12 l-66 -1 4 -222z"/>
<path d="M2665 4408 c-2 -7 -6 -109 -7 -226 -3 -176 -6 -214 -18 -222 -25 -16
-58 -11 -74 11 -14 21 -15 21 -56 -20 -41 -41 -42 -42 -25 -67 43 -66 167 -82
243 -31 68 44 72 64 72 331 l0 236 -65 0 c-44 0 -67 -4 -70 -12z"/>
<path d="M3427 4413 c-4 -3 -7 -133 -7 -289 l0 -282 64 -7 c36 -4 69 -4 75 0
12 7 15 521 4 564 -5 19 -13 21 -67 21 -35 0 -66 -3 -69 -7z"/>
<path d="M5570 4133 l0 -290 65 -7 c36 -4 71 -4 76 0 6 4 10 48 8 115 -1 60 0
111 2 114 3 3 17 -10 32 -28 111 -140 161 -193 185 -198 45 -11 162 -10 162 1
0 5 -9 20 -19 32 -134 159 -201 242 -213 262 -3 6 39 65 94 131 137 165 134
155 46 155 -95 0 -109 -5 -136 -43 -12 -18 -40 -52 -63 -77 -22 -25 -48 -57
-57 -72 -9 -16 -19 -28 -23 -28 -3 0 -9 46 -12 101 -4 56 -9 104 -12 107 -3 4
-35 8 -70 10 l-65 4 0 -289z"/>
<path d="M6680 4130 l0 -287 67 -7 c38 -4 70 -3 76 3 5 5 8 121 5 285 -2 232
-5 278 -18 286 -8 6 -41 9 -72 8 l-58 -1 0 -287z"/>
<path d="M7440 4132 l0 -289 66 -7 c65 -7 78 -4 80 15 1 5 2 80 3 167 l2 157
25 -30 c15 -16 38 -43 53 -60 14 -16 42 -50 61 -75 19 -25 37 -47 40 -50 4 -3
25 -31 49 -62 42 -56 43 -57 106 -63 36 -4 71 -5 80 -1 13 5 15 39 15 234 0
126 -3 257 -6 291 l-7 61 -68 -1 -69 -2 -1 -116 c-1 -64 -4 -140 -7 -169 l-7
-53 -60 77 c-136 172 -205 253 -222 257 -10 3 -44 6 -75 6 l-58 2 0 -289z"/>
</g>
</svg>
